<svg width="71" height="40" viewBox="0 0 71 40" fill="none" xmlns="http://www.w3.org/2000/svg">
<path fill-rule="evenodd" clip-rule="evenodd" d="M27.2026 39.9987H22.4956V0.00146484H29.7796L34.6524 32.9957C33.9246 25.1539 32.9719 12.4927 32.9719 5.82695V0.00146484H37.6776V39.9987H31.0104L26.5282 7.95425C26.9216 15.1244 27.2012 23.6954 27.2012 28.5135V39.9972L27.2026 39.9987ZM40.3669 39.9987V0.00146484H47.0326C51.4587 0.00146484 54.2028 2.40978 54.2028 8.01186V13.8936C54.2028 17.5355 53.0815 19.3832 51.5134 20.3359C53.0815 21.3447 54.2028 23.1362 54.2028 26.2176V32.0431C54.2028 37.5327 51.29 39.9987 47.0326 39.9987H40.3669ZM45.7442 5.04291V18.2634H46.4158C48.3211 18.2634 48.8255 17.5355 48.8255 15.3506V7.73225C48.8255 5.88316 48.2649 5.04291 46.6406 5.04291H45.7442ZM45.7442 22.6332V34.9558H46.6406C48.3211 34.9558 48.8255 34.0046 48.8255 32.0993V25.3211C48.8255 23.361 48.2073 22.6332 46.4158 22.6332H45.7442ZM64.2801 32.4913H60.9191L60.4695 39.9987H55.0374L58.9576 0.00146484H66.576L70.3866 39.9987H64.7283L64.2801 32.4913ZM61.1425 27.9543H64.0005L63.5508 20.6155C63.3836 17.7027 62.9354 8.46008 62.5996 3.47343H62.3748L61.5907 20.6155L61.1425 27.9543Z" fill="#ECECE8"/>
<path fill-rule="evenodd" clip-rule="evenodd" d="M10.7306 6.68406L10.7405 6.82737C11.0411 7.0016 11.1929 7.14492 11.4964 7.33883C12.2987 7.84466 13.2879 8.74391 13.1628 11.8393C13.3876 12.5138 13.4874 13.8402 13.6968 14.2659C14.1141 15.0949 14.3937 15.6345 14.5159 16.4171C14.5159 16.4171 14.6354 17.6353 14.7927 17.7238C15.6231 17.9121 15.3829 17.9936 15.5051 18.1355C15.6344 18.3027 16.1135 18.2943 16.1135 18.7411C16.2793 18.9631 16.403 19.1949 16.4957 19.4352V3.32871C16.495 2.44723 16.1447 1.602 15.5218 0.978301C14.8989 0.354603 14.0541 0.0033242 13.1727 0.00146484H9.99155C10.503 0.184126 10.7924 0.397699 10.9597 0.73773C11.3699 0.772857 11.8589 1.69319 11.0974 3.05472C11.4346 3.27953 11.1718 3.61394 10.9301 4.00315C10.8599 4.1282 10.7826 4.35021 10.5564 4.33475C10.2684 4.94315 9.91849 5.53188 9.65573 5.56842C9.57564 5.66677 9.51804 5.92812 9.63747 6.05177C10.0253 6.22459 10.4974 6.46346 10.7306 6.68406ZM16.4957 21.6173C16.2759 22.1697 15.8951 22.6433 15.4028 22.9766C14.9104 23.3098 14.3292 23.4873 13.7347 23.4861C13.3452 23.4863 12.9596 23.4097 12.5997 23.2608C12.2399 23.1119 11.9129 22.8935 11.6374 22.6182C11.362 22.3429 11.1435 22.016 10.9944 21.6562C10.8453 21.2964 10.7686 20.9108 10.7686 20.5213C10.7686 19.1233 11.7296 17.95 13.035 17.6367C12.6935 16.7796 11.9713 15.3928 11.7563 14.9389C11.554 14.4865 11.065 11.6651 10.9597 11.1073C10.9358 10.985 9.67962 11.8365 9.67681 11.8885C9.60375 11.9587 8.7354 14.2294 8.69887 14.3516C8.6806 14.4289 8.6792 14.731 8.6792 14.731C8.6792 14.731 9.10635 14.7844 9.35224 15.5305C9.59532 16.2752 10.3358 18.9912 10.3358 18.9912C10.3358 18.9912 10.1363 19.1992 10.1278 19.1879C11.065 22.3241 10.7377 23.6744 11.1578 24.5947C11.6861 25.8902 11.8294 25.7202 12.2818 26.8105C12.6078 27.6044 12.9703 30.7279 13.0912 30.8656C13.597 31.5077 13.8696 32.0079 13.8696 32.369C13.8696 32.7344 13.441 33.8092 13.597 34.4359C13.6925 34.8055 13.7417 35.6302 13.9131 35.7876C13.9131 35.7876 14.0705 36.0981 13.9932 36.2372C13.9708 36.2836 13.9258 36.3553 13.9469 36.4129C14.2251 37.3964 15.1271 39.0769 13.6673 39.9565H13.6982C14.4811 39.8346 15.1942 39.4356 15.7076 38.8322C16.2211 38.2287 16.5007 37.4609 16.4957 36.6686V21.6173Z" fill="#ECECE8"/>
<path fill-rule="evenodd" clip-rule="evenodd" d="M12.7498 36.0292C12.2158 35.5515 12.5727 35.3506 12.5502 35.1623C12.199 33.7052 11.0412 32.8242 11.6397 32.3437C11.4922 31.8631 11.1915 31.259 11.2028 31.2604C9.40003 30.2248 7.86427 28.5429 7.60433 28.2956C7.28818 27.9528 6.74863 27.6071 6.64887 27.3289C6.2147 26.9313 4.09021 23.9174 3.59562 22.8074L2.73289 22.6851C2.33947 21.0833 1.02993 19.7387 0.997613 18.1326C0.986372 17.5242 1.27301 16.2231 1.3798 15.9646C1.48518 15.7004 1.98679 15.2691 1.98679 15.2691V14.8391C0.105383 14.8925 0.646341 14.7 0.323171 13.968C0.095547 13.4621 0.258537 13.3497 0.340032 12.9985C0.592948 11.9629 1.43178 10.3639 1.77744 9.63749C1.88422 9.27076 2.24673 8.38696 2.24673 8.38696C3.64901 5.53183 4.17311 5.74118 5.83814 5.5796L5.91963 5.46157C7.58887 5.38851 7.31488 5.26345 7.54953 3.65604C7.30786 3.76001 7.23479 3.15161 7.23479 3.15161C7.10271 2.2383 7.48771 2.41113 7.67037 2.39286C7.71112 0.88942 7.86427 0.4145 8.949 0H3.32865C2.89129 -1.55862e-07 2.45822 0.0861909 2.05418 0.253647C1.65015 0.421103 1.28308 0.666541 0.973946 0.975932C0.664815 1.28532 0.419688 1.6526 0.252573 2.05678C0.0854576 2.46095 -0.000368051 2.8941 1.18634e-06 3.33146V36.6699C1.18634e-06 38.5092 1.48939 40 3.33006 40H13.1727C12.0458 39.3902 12.7118 38.231 12.7498 36.0306" fill="#ECECE8"/>
</svg>
