<svg width="185" height="35" viewBox="0 0 185 35" fill="none" xmlns="http://www.w3.org/2000/svg">
<path d="M16.2096 13.0684C16.2487 11.3036 16.7374 10.2872 18.4352 10.2872C19.795 10.2872 20.3535 11.0858 20.3535 12.3172C20.3535 13.8698 20.0156 14.1658 18.1755 14.6544C16.4805 15.1068 14.2215 15.481 12.7108 16.3159C11.2057 17.1452 10.2256 19.1362 10.2256 21.5209C10.2256 25.9189 12.2249 27.7283 15.6512 27.7283C17.6896 27.7283 19.608 26.6728 20.4373 24.8634H20.5183C20.5406 25.6564 20.6216 26.4885 20.8506 27.1978H26.7229C26.0137 26.2958 26.0137 24.33 26.0137 22.7914V12.3172C26.0137 8.02815 23.7881 6.29688 18.7758 6.29688C16.2543 6.29688 14.5175 6.63196 13.0961 7.6065C11.6609 8.58941 10.8371 10.2872 10.7952 13.0684H16.2096ZM16.1007 20.9121C16.1007 19.7757 16.4023 19.1334 17.0418 18.6559C17.6058 18.2035 18.4352 18.1617 20.3535 17.1424C20.3535 17.969 20.3256 19.0329 20.3256 20.7223C20.3256 22.7495 19.15 23.5118 17.8739 23.5118C16.7402 23.5091 16.1007 22.5317 16.1007 20.9121Z" fill="#ECECE8"/>
<path d="M38.8868 27.1976H44.7647V0.301514H38.6606V9.04164H38.5852C37.5744 6.85242 35.723 6.29394 34.0309 6.29394C29.0186 6.29394 28.125 10.8483 28.125 17.1814C28.125 24.7878 30.3031 27.7254 34.4106 27.7254C37.1164 27.7254 38.3674 26.1086 38.8142 24.7068H38.8896V27.1976H38.8868ZM38.7779 17.1423C38.7779 21.0935 38.3953 23.2799 36.5943 23.2799C34.2933 23.2799 34.2124 20.1581 34.2124 16.8798C34.2124 13.1827 34.3296 10.7366 36.5524 10.7366C38.6271 10.7366 38.7779 13.5206 38.7779 17.1423Z" fill="#ECECE8"/>
<path d="M63.6322 27.1977H57.7599V24.7879H57.6845C56.8189 26.5974 55.0485 27.7255 52.7951 27.7255C49.3213 27.7255 47.4756 25.9942 47.4756 22.0709V6.82178H53.5797V20.7222C53.5797 22.191 54.2247 23.0482 55.3501 23.0482C56.5117 23.0482 57.5337 22.1519 57.5337 20.1581V6.82178H63.6322V27.1977Z" fill="#ECECE8"/>
<path d="M66.4976 0.301514H72.6017V27.1976H66.4976V0.301514Z" fill="#ECECE8"/>
<path d="M76.9353 11.0383H74.4082V6.82181H76.9353V0.834961H83.0394V6.8246H85.8625V11.0411H83.0394V21.3282C83.0394 22.7523 83.5616 23.2046 84.9969 23.2046C85.2594 23.2046 85.6028 23.1711 85.8625 23.1348V27.1977C84.6953 27.3485 83.5225 27.4239 82.3581 27.4239C78.1416 27.4239 76.9325 26.67 76.9325 21.923V11.0383H76.9353Z" fill="#ECECE8"/>
<path d="M98.5427 20.7223C98.5902 21.6298 98.66 22.42 98.9615 23.0232C99.305 23.59 99.8635 23.9642 100.849 23.9642C102.276 23.9642 103.033 23.0483 103.033 21.8895C103.033 20.9457 102.58 20.0465 100.698 19.4043C95.6861 17.7149 93.2763 16.732 93.2763 12.4373C93.2763 8.36881 96.1385 6.29688 101.042 6.29688C106.763 6.29688 108.425 9.07808 108.425 12.0184V12.7054H102.994V12.3172C102.994 10.5552 102.279 10.0694 100.994 10.0694C99.3748 10.0694 98.9225 10.8512 98.9225 11.943C98.9225 15.5592 108.682 13.1577 108.682 21.0657C108.682 25.1677 105.929 27.7283 100.891 27.7283C95.4236 27.7283 93.1255 25.6955 93.1255 21.6298V20.7223H98.5427Z" fill="#ECECE8"/>
<path d="M109.391 6.82178H115.49L117.458 21.8475H117.528L119.823 6.82178H126.38L128.53 21.8475H128.6L130.756 6.82178H136.628L132.227 27.1977H125.333L123.113 12.1664H123.037L120.656 27.1977H113.655L109.391 6.82178Z" fill="#ECECE8"/>
<path d="M138.435 0H144.544V4.67164H138.435V0ZM138.435 6.82176H144.544V27.1977H138.435V6.82176Z" fill="#ECECE8"/>
<path d="M147.328 6.82184H153.2V9.22887H153.281C154.142 7.41662 155.92 6.29688 158.174 6.29688C159.944 6.29688 162.287 6.63196 163.186 9.41875C164.627 7.05082 165.976 6.29688 168.24 6.29688C171.703 6.29688 173.543 8.02815 173.543 11.9431V27.1978H167.439V13.2974C167.439 11.8314 166.805 10.9629 165.671 10.9629C164.504 10.9629 163.482 11.8732 163.482 13.867V27.1978H157.383V13.2974C157.383 11.8314 156.747 10.9629 155.613 10.9629C154.451 10.9629 153.429 11.8732 153.429 13.867V27.1978H147.331V6.82184H147.328Z" fill="#ECECE8"/>
<path d="M0 0.251221H9.53036V4.4677H5.64617V29.8504H9.53036V34.0668H0V0.251221Z" fill="#ECECE8"/>
<path d="M174.931 29.8532H178.81V4.4677H174.931V0.251221H184.45V34.0668H174.931V29.8532Z" fill="#ECECE8"/>
</svg>
