<svg width="115" height="47" viewBox="0 0 115 47" fill="none" xmlns="http://www.w3.org/2000/svg">
<path d="M99.389 20.4403C97.4449 20.8835 92.3103 21.1297 92.3103 21.1297L91.6789 23.132C91.6789 23.132 94.2213 22.9187 96.0823 23.0992C96.0823 23.0992 96.6805 23.05 96.747 23.7557C96.7802 24.4779 96.6971 25.2329 96.6971 25.2329C96.6971 25.2329 96.6473 25.676 96.0325 25.7909C95.3179 25.9058 90.4991 26.1191 90.4991 26.1191L89.7182 28.7124C89.7182 28.7124 89.4357 29.3032 90.0837 29.1391C90.6819 28.975 95.7334 28.023 96.398 28.1543C97.0959 28.3184 97.8935 29.2704 97.6609 30.1238C97.395 31.1579 92.3436 34.3419 89.2861 34.1286C89.2861 34.1286 87.6743 34.227 86.3284 32.077C85.0323 30.0254 86.777 26.1684 86.777 26.1684C86.777 26.1684 85.996 24.363 86.5776 23.7065C86.5776 23.7065 86.91 23.4275 87.907 23.3454L89.1532 20.8178C89.1532 20.8178 87.7408 20.8999 86.91 19.8823C86.1456 18.8975 86.0791 18.4708 86.6773 18.2082C87.3088 17.8799 93.1578 16.8459 97.179 16.9772C97.179 16.9772 98.5914 16.8131 99.8376 19.2258C99.8376 19.2258 100.403 20.2106 99.4056 20.4403H99.389ZM84.2347 30.1567C83.7362 31.3548 82.357 32.6186 80.6954 31.8472C79.0005 31.0594 76.3252 25.676 76.3252 25.676C76.3252 25.676 75.3282 23.6736 75.1288 23.7393C75.1288 23.7393 74.9128 23.3454 74.7965 25.5447C74.6303 27.7276 74.8297 31.9785 73.9158 32.6514C73.085 33.3079 72.088 33.0289 71.523 32.2575C71.0578 31.4861 70.8584 29.6315 71.1242 26.3982C71.4233 23.1648 72.1711 19.7182 73.1182 18.6513C74.1152 17.5681 74.9128 18.3559 75.2119 18.6513C75.2119 18.6513 76.4914 19.8002 78.6515 23.1977L79.0171 23.8214C79.0171 23.8214 80.9778 27.0547 81.1772 27.0383C81.1772 27.0383 81.3434 27.2024 81.4763 27.0711C81.6757 27.0218 81.6093 25.9714 81.6093 25.9714C81.6093 25.9714 81.2437 22.4755 79.4159 16.5669C79.4159 16.5669 79.15 15.8119 79.3328 15.0898C79.499 14.4333 80.2135 14.7615 80.2135 14.7615C80.2135 14.7615 82.9718 16.0745 84.3178 20.506C85.6471 24.9374 84.7498 28.9585 84.2513 30.1567H84.2347ZM70.7105 18.7826C70.4446 19.2422 70.3283 19.8823 69.1817 20.0628C69.1817 20.0628 58.0503 20.8342 57.502 21.6056C57.502 21.6056 57.1364 22.0652 57.7346 22.1801C58.366 22.3114 60.8917 22.6396 62.0881 22.7053C63.3842 22.7053 67.7378 22.7381 69.333 24.6748C69.333 24.6748 70.2469 25.5939 70.2136 27.6784C70.1804 29.812 69.7982 30.567 68.9508 31.3384C68.0701 32.0606 60.5262 35.4087 55.6592 30.288C55.6592 30.288 53.4326 27.8261 56.4402 25.955C56.4402 25.955 58.6003 24.642 64.1336 26.1684C64.1336 26.1684 65.7953 26.7592 65.7288 27.3665C65.6291 28.023 64.3496 28.6795 62.4886 28.6467C60.694 28.5975 59.3647 27.744 59.6305 27.8917C59.8798 27.9738 57.6864 26.8413 57.0051 27.6127C56.3405 28.3349 56.5066 28.7616 57.1713 29.2047C58.833 30.1567 65.3633 29.812 67.3074 27.6619C67.3074 27.6619 68.0884 26.7921 66.9086 26.0863C65.7454 25.4298 62.3557 25.0195 61.043 24.9702C59.7967 24.9046 55.1275 24.9702 54.4296 23.7721C54.4296 23.7721 53.7649 22.9187 54.496 20.588C55.2604 18.1261 60.694 17.1742 63.0536 16.9772C63.0536 16.9772 69.534 16.7146 70.747 18.0277C70.747 18.0277 70.9132 18.3231 70.7138 18.7662L70.7105 18.7826ZM52.3342 33.2078C51.5532 33.7822 49.8916 33.5361 49.4097 32.8795C48.9444 32.3051 48.7783 30.0401 48.8614 26.4786C48.9777 22.835 49.0275 18.3707 49.8583 17.6485C50.6892 16.9428 51.1877 17.5665 51.52 18.0424C51.8523 18.5348 52.2844 19.0764 52.3508 20.2089C52.4505 21.3578 52.733 27.2664 52.733 27.2664C52.733 27.2664 53.0986 32.6498 52.3508 33.2078H52.3342ZM53.9959 14.0065C51.7028 14.7779 50.1408 14.5317 48.8115 13.9573C48.2299 14.9913 47.881 15.3031 47.4489 15.3688C46.7843 15.4344 46.2027 14.384 46.1196 14.0558C45.9867 13.8096 45.671 13.3664 46.0532 12.3653C44.7571 11.2164 44.6574 9.67358 44.89 8.63957C45.1891 7.42503 47.3825 2.86229 54.0291 2.32067C54.0291 2.32067 57.2859 2.09089 57.8509 3.79782H57.9506C57.9506 3.79782 61.1078 3.79782 61.0413 6.58798C61.0413 9.37815 57.5518 12.8576 53.9959 14.0558V14.0065ZM56.9536 6.06441C54.8599 6.39267 51.6363 9.15001 50.091 11.4314C52.4671 11.8581 56.6213 11.694 58.4823 7.98471C58.4823 7.98471 59.3614 5.6541 56.9536 6.06441ZM47.7647 7.86982C47.1 8.93664 47.0668 9.57674 47.3825 10.0035C48.1635 8.85458 49.5426 7.04918 51.6197 5.63768C50.0245 5.80181 48.6786 6.45832 47.7647 7.86982ZM104.372 33.0929C102.844 36.8022 101.547 40.5607 100.8 46.1886C100.8 46.1886 100.634 47.2883 99.7197 46.9272C98.8058 46.599 97.3103 45.1218 96.9779 43.0374C96.6456 40.3129 97.8752 35.7173 100.384 30.434C99.6532 29.2852 99.1381 27.5782 99.5535 25.182C99.5535 25.182 100.218 20.7505 104.705 16.7458C104.705 16.7458 105.236 16.3027 105.535 16.4504C105.901 16.6145 105.751 18.026 105.452 18.7482C105.187 19.4375 103.193 22.8514 103.193 22.8514C103.193 22.8514 101.946 25.182 102.295 27.0038C104.655 23.4258 110.022 16.173 113.344 18.4692C115.454 19.9463 115.454 24.706 113.875 27.4633C112.629 29.6462 109.106 34.1597 104.404 33.1093L104.372 33.0929ZM111.318 21.9503C110.088 23.2633 107.895 25.7581 106.167 29.1391C107.995 28.9421 109.773 27.941 110.321 27.4322C111.202 26.6608 113.229 24.5763 112.913 21.819C112.913 21.819 112.714 20.3747 111.318 21.9503ZM36.8825 35.0296C31.0002 36.8022 25.4519 35.9816 22.4277 35.1937C22.3446 36.4083 22.2117 36.9171 22.0123 37.114C21.7797 37.3766 19.8522 38.4599 18.7887 36.9171C18.3234 36.1785 18.0908 34.8491 17.9579 33.6345C11.1451 30.5818 7.98793 26.0847 7.88823 25.9205C7.72206 25.7564 6.17672 24.1644 7.72206 22.1949C9.1677 20.4223 13.9533 18.6333 18.2403 17.9275C18.4065 14.3167 18.8053 11.5266 19.3204 10.2956C19.9352 8.81847 20.7162 10.1315 21.4141 11.1163C21.9791 11.8548 22.328 15.0225 22.3613 17.55C25.1528 17.4187 26.8477 17.6157 29.955 18.2066C34.0427 18.8959 36.7678 20.9639 36.5518 23.2945C36.3524 25.5923 34.2255 26.5442 33.3947 26.6099C32.5638 26.6755 31.2345 26.0683 31.2345 26.0683C30.304 25.6415 31.1514 25.2476 32.2315 24.7881C33.4279 24.2136 33.162 23.6392 33.162 23.6392C32.73 22.3262 27.4293 21.4563 22.1635 21.4563C22.1635 24.3285 22.2798 29.0882 22.3629 31.862C26.0518 32.5513 28.8101 32.4036 28.8101 32.4036C28.8101 32.4036 42.2679 32.0261 42.6501 23.5407C43.0655 15.0389 29.1923 6.89982 18.9731 4.33944C8.77057 1.69699 2.98966 3.56804 2.49117 3.81423C1.94282 4.07683 2.44132 4.17531 2.44132 4.17531C2.44132 4.17531 2.98966 4.25737 3.98666 4.58563C4.98365 4.91388 4.18606 5.40626 4.18606 5.40626C2.44132 5.99712 0.497178 5.65246 0.114997 4.86464C-0.267184 4.09325 0.364246 3.3875 1.11199 2.3535C1.80989 1.28667 2.60748 1.31949 2.60748 1.31949C15.2344 -3.02988 30.6546 4.76617 30.6546 4.76617C45.0761 11.9549 47.5353 20.4059 47.2695 23.6884C47.0368 26.9217 45.774 32.3872 36.8841 35.0444L36.8825 35.0296ZM9.13447 23.2961C7.70544 23.9527 8.70244 25.0031 8.70244 25.0031C11.3943 27.8425 14.6844 29.6315 17.8415 30.7475C18.2071 25.8237 18.1739 24.0675 18.1739 21.5892C13.2886 21.9175 10.4638 22.7053 9.13447 23.2961Z" fill="#ECECE8"/>
</svg>
