<svg width="47" height="13" viewBox="0 0 47 13" fill="none" xmlns="http://www.w3.org/2000/svg">
<path d="M1.826 5.62V1.57H9.296V0.129999H0.206V13H9.512V11.56H1.826V7.06H8.432V5.62H1.826ZM15.6008 7.708V9.148H30.0008V7.708H15.6008ZM46.0063 3.37C46.0063 1.372 44.4223 0.129999 41.7943 0.129999H36.6103V13H42.1543C44.8183 13 46.5103 11.632 46.5103 9.256C46.5103 7.33 45.3583 6.304 44.0083 6.07V6.034C45.0703 5.674 46.0063 4.954 46.0063 3.37ZM38.2303 5.512V1.57H42.2263C43.7023 1.57 44.3863 2.38 44.3863 3.55C44.3863 4.72 43.8823 5.512 42.0463 5.512H38.2303ZM38.2303 6.952H42.6763C44.0263 6.952 44.8903 7.87 44.8903 9.256C44.8903 10.462 44.3863 11.56 42.3163 11.56H38.2303V6.952Z" fill="#ECECE8"/>
</svg>
