<svg width="1359" height="445" viewBox="0 0 1359 445" fill="none" xmlns="http://www.w3.org/2000/svg">
<path d="M396.525 29.2V0.399986H183.405V202H396.525V173.2H217.965V115.6H396.525V86.8H217.965V29.2H396.525ZM651.857 0.399986L552.785 170.032L453.713 0.399986H413.681L532.625 202H572.945L691.889 0.399986H651.857ZM856.929 202H895.233L775.713 0.399986H736.545L617.025 202H655.329L683.841 154.192H828.417L856.929 202ZM700.833 125.392L756.129 32.08L811.425 125.392H700.833ZM1137.9 0.399986V168.88L962.51 0.399986H912.686V202H947.246V33.52L1122.64 202H1172.46V0.399986H1137.9ZM223.217 334.864C233.873 324.208 239.057 309.808 239.057 294.544C239.057 265.456 224.945 240.4 179.153 240.4H0.592501V442H184.913C230.705 442 250.577 418.384 250.577 383.824C250.577 359.056 240.497 343.792 223.217 334.864ZM35.1525 269.2H170.513C189.521 269.2 204.497 269.2 204.497 297.424C204.497 325.648 189.521 325.648 170.801 325.648H170.513H35.1525V269.2ZM182.033 413.2H35.1525V354.448H182.033C201.041 354.448 216.017 354.448 216.017 383.824C216.017 413.2 201.041 413.2 182.033 413.2ZM508.989 311.824C508.989 266.896 477.597 240.4 431.805 240.4H273.405V442H307.965V383.248H420.861L457.149 442H497.469L458.877 379.792C489.693 371.152 508.989 347.248 508.989 311.824ZM307.965 269.2H417.405C439.293 269.2 474.429 269.2 474.429 311.824C474.429 354.448 439.293 354.448 417.405 354.448H307.965V269.2ZM655.714 444.88C744.13 444.88 782.434 405.136 782.434 340.912C782.434 276.976 744.13 237.52 655.714 237.52C567.01 237.52 528.994 276.688 528.994 340.912C528.994 405.424 567.01 444.88 655.714 444.88ZM655.714 416.08C594.37 416.08 563.554 397.072 563.554 340.912C563.554 285.04 594.082 266.32 655.714 266.32C717.346 266.32 747.874 285.328 747.874 340.912C747.874 396.784 717.058 416.08 655.714 416.08ZM805.744 340.912C805.744 405.424 843.76 444.88 932.464 444.88C1012.53 444.88 1051.7 412.048 1058.32 358.192H1023.47C1017.42 400.816 984.016 416.08 932.464 416.08C874 416.08 840.304 397.072 840.304 340.912C840.304 285.04 873.712 266.32 932.464 266.32C984.304 266.32 1017.42 281.296 1023.47 323.632H1058.03C1051.7 270.064 1012.53 237.52 932.464 237.52C843.76 237.52 805.744 276.688 805.744 340.912ZM1358.42 240.4H1300.82L1118.81 363.952V240.4H1084.25V442H1118.81V403.12L1204.92 344.656L1310.62 442H1358.42L1232.28 325.936L1358.42 240.4Z" fill="#ECECE8"/>
</svg>
