<svg width="130" height="43" viewBox="0 0 130 43" fill="none" xmlns="http://www.w3.org/2000/svg">
<path d="M55.6323 22.5202C55.6323 28.6769 50.8158 33.2137 44.905 33.2137C38.9942 33.2137 34.1777 28.6769 34.1777 22.5202C34.1777 16.3201 38.9942 11.8267 44.905 11.8267C50.8158 11.8267 55.6323 16.3201 55.6323 22.5202ZM50.9364 22.5202C50.9364 18.6728 48.1449 16.0404 44.905 16.0404C41.6651 16.0404 38.8736 18.6728 38.8736 22.5202C38.8736 26.329 41.6651 28.9999 44.905 28.9999C48.1449 28.9999 50.9364 26.3241 50.9364 22.5202Z" fill="#ECECE8"/>
<path d="M78.7744 22.5202C78.7744 28.6769 73.9579 33.2137 68.0471 33.2137C62.1362 33.2137 57.3198 28.6769 57.3198 22.5202C57.3198 16.3249 62.1362 11.8267 68.0471 11.8267C73.9579 11.8267 78.7744 16.3201 78.7744 22.5202ZM74.0785 22.5202C74.0785 18.6728 71.287 16.0404 68.0471 16.0404C64.8072 16.0404 62.0157 18.6728 62.0157 22.5202C62.0157 26.329 64.8072 28.9999 68.0471 28.9999C71.287 28.9999 74.0785 26.3241 74.0785 22.5202Z" fill="#ECECE8"/>
<path d="M100.952 12.4727V31.6709C100.952 39.5681 96.2948 42.7935 90.7889 42.7935C85.6061 42.7935 82.4867 39.327 81.3103 36.4921L85.3987 34.7902C86.1268 36.5307 87.9106 38.5846 90.7841 38.5846C94.3084 38.5846 96.4924 36.4102 96.4924 32.3169V30.779H96.3285C95.2775 32.0759 93.2525 33.2089 90.6973 33.2089C85.3505 33.2089 80.4521 28.5516 80.4521 22.5587C80.4521 16.5226 85.3505 11.8267 90.6973 11.8267C93.2477 11.8267 95.2727 12.9597 96.3285 14.218H96.4924V12.4775H100.952V12.4727ZM96.8251 22.5587C96.8251 18.7934 94.3132 16.0404 91.1167 16.0404C87.8769 16.0404 85.1625 18.7934 85.1625 22.5587C85.1625 26.2856 87.8769 28.9999 91.1167 28.9999C94.3132 28.9999 96.8251 26.2856 96.8251 22.5587Z" fill="#ECECE8"/>
<path d="M108.304 1.21973V32.5578H103.724V1.21973H108.304Z" fill="#ECECE8"/>
<path d="M126.153 26.0396L129.798 28.4695C128.621 30.21 125.786 33.2088 120.888 33.2088C114.813 33.2088 110.276 28.5129 110.276 22.5153C110.276 16.1561 114.852 11.8218 120.362 11.8218C125.912 11.8218 128.626 16.238 129.513 18.6246L130 19.8395L115.705 25.76C116.8 27.9054 118.501 28.9999 120.888 28.9999C123.279 28.9999 124.938 27.8235 126.153 26.0396ZM114.934 22.1923L124.489 18.2244C123.964 16.8889 122.383 15.9584 120.522 15.9584C118.135 15.9584 114.813 18.0653 114.934 22.1923Z" fill="#ECECE8"/>
<path d="M16.8406 19.7382V15.2014H32.1288C32.2782 15.9921 32.3554 16.9274 32.3554 17.9398C32.3554 21.3436 31.4249 25.5526 28.426 28.5514C25.5092 31.5888 21.7824 33.2087 16.8454 33.2087C7.6947 33.2087 0 25.7551 0 16.6044C0 7.45364 7.6947 0 16.8454 0C21.9077 0 25.514 1.98635 28.2236 4.57536L25.0223 7.77666C23.0793 5.95423 20.4469 4.53679 16.8406 4.53679C10.1584 4.53679 4.93213 9.92212 4.93213 16.6044C4.93213 23.2866 10.1584 28.6719 16.8406 28.6719C21.1749 28.6719 23.6434 26.9315 25.2247 25.3501C26.5072 24.0676 27.3509 22.2356 27.6836 19.7333L16.8406 19.7382Z" fill="#ECECE8"/>
</svg>
