<svg width="33" height="30" viewBox="0 0 33 30" fill="none" xmlns="http://www.w3.org/2000/svg">
<circle cx="14.627" cy="14.627" r="14.127" stroke="#F0F0F0"/>
<path d="M28.754 14.627C28.754 18.6054 27.9467 22.1824 26.6647 24.7463C25.3678 27.3401 23.6687 28.7541 21.9405 28.7541C20.2124 28.7541 18.5132 27.3401 17.2163 24.7463C15.9344 22.1824 15.127 18.6054 15.127 14.627C15.127 10.6487 15.9344 7.07168 17.2163 4.50776C18.5132 1.91394 20.2124 0.5 21.9405 0.5C23.6687 0.5 25.3678 1.91394 26.6647 4.50776C27.9467 7.07168 28.754 10.6487 28.754 14.627Z" stroke="#F0F0F0"/>
<path d="M32.5 14.627C32.5 18.6376 32.0931 22.2517 31.4439 24.8486C31.1183 26.1509 30.7386 27.1694 30.3362 27.8502C29.914 28.5645 29.5622 28.7541 29.3432 28.7541C29.1242 28.7541 28.7725 28.5645 28.3503 27.8502C27.9479 27.1694 27.5681 26.1509 27.2426 24.8486C26.5933 22.2517 26.1865 18.6376 26.1865 14.627C26.1865 10.6165 26.5933 7.00234 27.2426 4.40542C27.5681 3.10312 27.9479 2.08469 28.3503 1.40388C28.7725 0.689598 29.1242 0.5 29.3432 0.5C29.5622 0.5 29.914 0.689598 30.3362 1.40388C30.7386 2.08469 31.1183 3.10312 31.4439 4.40542C32.0931 7.00234 32.5 10.6165 32.5 14.627Z" stroke="#F0F0F0"/>
</svg>
