<svg width="570" height="131" viewBox="0 0 570 131" fill="none" xmlns="http://www.w3.org/2000/svg">
<path fill-rule="evenodd" clip-rule="evenodd" d="M30.2026 44.9987H25.4956V5.00146H32.7796L37.6524 37.9957C36.9246 30.1539 35.9719 17.4927 35.9719 10.827V5.00146H40.6776V44.9987H34.0104L29.5282 12.9543C29.9216 20.1244 30.2012 28.6954 30.2012 33.5135V44.9972L30.2026 44.9987ZM43.3669 44.9987V5.00146H50.0326C54.4587 5.00146 57.2028 7.40978 57.2028 13.0119V18.8936C57.2028 22.5355 56.0815 24.3832 54.5134 25.3359C56.0815 26.3447 57.2028 28.1362 57.2028 31.2176V37.0431C57.2028 42.5327 54.29 44.9987 50.0326 44.9987H43.3669ZM48.7442 10.0429V23.2634H49.4158C51.3211 23.2634 51.8255 22.5355 51.8255 20.3506V12.7323C51.8255 10.8832 51.2649 10.0429 49.6406 10.0429H48.7442ZM48.7442 27.6332V39.9558H49.6406C51.3211 39.9558 51.8255 39.0046 51.8255 37.0993V30.3211C51.8255 28.361 51.2073 27.6332 49.4158 27.6332H48.7442ZM67.2801 37.4913H63.9191L63.4695 44.9987H58.0374L61.9576 5.00146H69.576L73.3866 44.9987H67.7283L67.2801 37.4913ZM64.1425 32.9543H67.0005L66.5508 25.6155C66.3836 22.7027 65.9354 13.4601 65.5996 8.47343H65.3748L64.5907 25.6155L64.1425 32.9543Z" fill="#ECECE8"/>
<path fill-rule="evenodd" clip-rule="evenodd" d="M13.7306 11.6841L13.7405 11.8274C14.0411 12.0016 14.1929 12.1449 14.4964 12.3388C15.2987 12.8447 16.2879 13.7439 16.1628 16.8393C16.3876 17.5138 16.4874 18.8402 16.6968 19.2659C17.1141 20.0949 17.3937 20.6345 17.5159 21.4171C17.5159 21.4171 17.6354 22.6353 17.7927 22.7238C18.6231 22.9121 18.3829 22.9936 18.5051 23.1355C18.6344 23.3027 19.1135 23.2943 19.1135 23.7411C19.2793 23.9631 19.403 24.1949 19.4957 24.4352V8.32871C19.495 7.44723 19.1447 6.602 18.5218 5.9783C17.8989 5.3546 17.0541 5.00332 16.1727 5.00146H12.9915C13.503 5.18413 13.7924 5.3977 13.9597 5.73773C14.3699 5.77286 14.8589 6.69319 14.0974 8.05472C14.4346 8.27953 14.1718 8.61394 13.9301 9.00315C13.8599 9.1282 13.7826 9.35021 13.5564 9.33475C13.2684 9.94315 12.9185 10.5319 12.6557 10.5684C12.5756 10.6668 12.518 10.9281 12.6375 11.0518C13.0253 11.2246 13.4974 11.4635 13.7306 11.6841ZM19.4957 26.6173C19.2759 27.1697 18.8951 27.6433 18.4028 27.9766C17.9104 28.3098 17.3292 28.4873 16.7347 28.4861C16.3452 28.4863 15.9596 28.4097 15.5997 28.2608C15.2399 28.1119 14.9129 27.8935 14.6374 27.6182C14.362 27.3429 14.1435 27.016 13.9944 26.6562C13.8453 26.2964 13.7686 25.9108 13.7686 25.5213C13.7686 24.1233 14.7296 22.95 16.035 22.6367C15.6935 21.7796 14.9713 20.3928 14.7563 19.9389C14.554 19.4865 14.065 16.6651 13.9597 16.1073C13.9358 15.985 12.6796 16.8365 12.6768 16.8885C12.6037 16.9587 11.7354 19.2294 11.6989 19.3516C11.6806 19.4289 11.6792 19.731 11.6792 19.731C11.6792 19.731 12.1063 19.7844 12.3522 20.5305C12.5953 21.2752 13.3358 23.9912 13.3358 23.9912C13.3358 23.9912 13.1363 24.1992 13.1278 24.1879C14.065 27.3241 13.7377 28.6744 14.1578 29.5947C14.6861 30.8902 14.8294 30.7202 15.2818 31.8105C15.6078 32.6044 15.9703 35.7279 16.0912 35.8656C16.597 36.5077 16.8696 37.0079 16.8696 37.369C16.8696 37.7344 16.441 38.8092 16.597 39.4359C16.6925 39.8055 16.7417 40.6302 16.9131 40.7876C16.9131 40.7876 17.0705 41.0981 16.9932 41.2372C16.9708 41.2836 16.9258 41.3553 16.9469 41.4129C17.2251 42.3964 18.1271 44.0769 16.6673 44.9565H16.6982C17.4811 44.8346 18.1942 44.4356 18.7076 43.8322C19.2211 43.2287 19.5007 42.4609 19.4957 41.6686V26.6173Z" fill="#ECECE8"/>
<path fill-rule="evenodd" clip-rule="evenodd" d="M15.7498 41.0292C15.2158 40.5515 15.5727 40.3506 15.5502 40.1623C15.199 38.7052 14.0412 37.8242 14.6397 37.3437C14.4922 36.8631 14.1915 36.259 14.2028 36.2604C12.4 35.2248 10.8643 33.5429 10.6043 33.2956C10.2882 32.9528 9.74863 32.6071 9.64887 32.3289C9.2147 31.9313 7.09021 28.9174 6.59562 27.8074L5.73289 27.6851C5.33947 26.0833 4.02993 24.7387 3.99761 23.1326C3.98637 22.5242 4.27301 21.2231 4.3798 20.9646C4.48518 20.7004 4.98679 20.2691 4.98679 20.2691V19.8391C3.10538 19.8925 3.64634 19.7 3.32317 18.968C3.09555 18.4621 3.25854 18.3497 3.34003 17.9985C3.59295 16.9629 4.43178 15.3639 4.77744 14.6375C4.88422 14.2708 5.24673 13.387 5.24673 13.387C6.64901 10.5318 7.17311 10.7412 8.83814 10.5796L8.91963 10.4616C10.5889 10.3885 10.3149 10.2635 10.5495 8.65604C10.3079 8.76001 10.2348 8.15161 10.2348 8.15161C10.1027 7.2383 10.4877 7.41113 10.6704 7.39286C10.7111 5.88942 10.8643 5.4145 11.949 5H6.32865C5.89129 5 5.45822 5.08619 5.05418 5.25365C4.65015 5.4211 4.28308 5.66654 3.97395 5.97593C3.66482 6.28532 3.41969 6.6526 3.25257 7.05678C3.08546 7.46095 2.99963 7.8941 3 8.33146V41.6699C3 43.5092 4.48939 45 6.33006 45H16.1727C15.0458 44.3902 15.7118 43.231 15.7498 41.0306" fill="#ECECE8"/>
<path d="M141.703 4.61603C143.535 2.68921 145.703 1.04233 148.161 0C147.912 0.753455 147.73 1.52676 147.552 2.29908C147.149 4.27255 147.169 6.33041 147.633 8.29098C147.963 9.91602 148.507 11.4875 149.003 13.0668C149.552 14.6601 150.124 16.2464 150.778 17.801C151.439 19.3466 152.107 20.8982 152.96 22.3485C154.507 19.4786 155.866 16.5115 157.171 13.5255C158.023 11.4894 158.893 9.43059 159.243 7.23773C159.418 6.44655 159.472 5.63652 159.568 4.83442C159.57 4.07104 159.581 3.30666 159.562 2.54427C159.487 1.94469 159.432 1.34311 159.312 0.750476C160.724 1.5486 161.95 2.62369 163.154 3.69878C163.607 4.17229 164.131 4.57235 164.556 5.07266C165.507 6.05444 166.45 7.07394 167.12 8.27311C166.181 8.50441 165.25 8.87468 164.526 9.53284C163.257 10.6804 162.433 12.2161 161.704 13.7399C160.91 15.4304 160.178 17.1488 159.443 18.8652C159.122 19.5719 158.841 20.2956 158.515 21.0004C157.611 23.1586 156.654 25.2928 155.656 27.4083C158.278 29.5207 161.105 31.4217 163.374 33.9352C163.608 34.1874 163.809 34.4763 164.092 34.6778C163.987 34.1189 163.807 33.5779 163.718 33.015C163.211 30.6355 162.926 28.2094 162.865 25.7773C162.849 22.6682 163.175 19.5154 164.213 16.5681C165.009 14.2531 166.239 11.9669 168.263 10.5027C169.554 10.875 170.725 11.5569 171.839 12.2915C172.748 12.9219 173.595 13.6436 174.377 14.4268C172.798 15.085 171.392 16.1898 170.436 17.6124C169.581 18.7728 169.065 20.1358 168.657 21.5077C168.376 22.7833 168.157 24.0758 168.138 25.3842C168.161 26.3501 168.027 27.314 168.117 28.2799C168.157 29.8414 168.421 31.386 168.715 32.9177C169.136 34.8227 169.716 36.7049 170.587 38.456C171.183 39.6621 171.967 40.7997 173.033 41.6385C173.577 42.0128 174.16 42.3354 174.767 42.5975C173.408 44.0548 171.94 45.4028 170.444 46.7172C169.116 47.8746 167.737 48.9745 166.305 50C166.12 46.9951 165.409 44.0071 164.091 41.2921C162.072 37.1059 158.618 33.7873 154.828 31.1835C154.722 31.3503 154.745 31.5548 154.731 31.7434C154.669 34.8495 154.461 37.9576 154.646 41.0648C154.68 42.1706 154.645 43.3162 155.03 44.3724C155.511 45.8932 156.687 47.0577 157.891 48.0434C156.913 48.2558 155.908 48.3204 154.91 48.3601C153.926 48.3551 152.941 48.4544 151.957 48.373C149.876 48.3591 147.78 48.2241 145.747 47.7476C147.42 46.6775 148.483 44.8658 148.965 42.9737C149.19 42.0565 149.351 41.1194 149.357 40.1733C149.366 39.543 149.45 38.9166 149.436 38.2872C149.446 37.359 149.529 36.4329 149.516 35.5037C149.502 33.6841 149.554 31.8615 149.452 30.0439C149.433 29.5555 149.452 29.0661 149.42 28.5797C149.325 28.1677 149.266 27.7378 149.104 27.3487C148.403 26.8315 147.709 26.3034 147.026 25.7604C144.505 23.771 142.169 21.5573 139.971 19.2176C139.779 19.028 139.599 18.8245 139.372 18.6736C139.347 18.6319 139.297 18.5465 139.273 18.5048C139.977 20.5984 140.415 22.7853 140.484 24.995C140.506 26.5446 140.527 28.1012 140.33 29.6418C139.972 33.4439 139 37.1466 138.136 40.8553C137.749 42.5895 137.598 44.3615 137.415 46.1255C137.371 47.3068 137.225 48.4861 137.338 49.6694C135.545 48.502 133.77 47.2909 132.185 45.8486C131.378 45.1666 130.64 44.4022 130 43.5634C131.292 41.3755 132.504 39.1389 133.597 36.8448C134.317 35.2148 134.991 33.558 135.498 31.8466C135.901 30.3893 136.209 28.9023 136.327 27.3924C136.354 26.5913 136.353 25.7902 136.329 24.9881C136.142 22.4438 135.287 19.9551 133.877 17.8288C133.052 16.5184 132.027 15.3441 130.912 14.2739C132.305 12.1883 134.093 10.3548 136.162 8.92928C136.548 8.69103 136.936 8.45477 137.333 8.23539C138.94 12.6688 141.718 16.6505 145.232 19.7884C146.058 20.4912 146.9 21.1851 147.83 21.7499C147.606 20.929 147.39 20.105 147.113 19.3C146.96 18.8026 146.767 18.3182 146.63 17.8159C145.902 15.8414 145.088 13.8848 143.979 12.091C142.9 10.3012 141.504 8.62254 139.642 7.61098C140.132 6.4942 140.889 5.5164 141.703 4.61603Z" fill="#ECECE8"/>
<path d="M328 8L257.768 38.2614C251.944 40.7538 247.053 42 243.097 42C238.61 42 235.36 40.4133 233.349 37.2398C232.08 35.2045 231.706 32.6166 232.228 29.476C232.749 26.3354 234.129 22.9921 236.366 19.4461C238.238 16.5732 241.303 12.7954 245.559 8.11272C244.115 10.4144 243.055 12.9416 242.424 15.5923C241.304 20.4285 242.309 23.98 245.441 26.247C246.934 27.3053 248.987 27.8345 251.601 27.8345C253.986 27.7934 256.356 27.451 258.657 26.8153L328 8Z" fill="#ECECE8"/>
<path d="M401.21 21.0684C401.249 19.3036 401.737 18.2872 403.435 18.2872C404.795 18.2872 405.354 19.0858 405.354 20.3172C405.354 21.8698 405.016 22.1658 403.175 22.6544C401.48 23.1068 399.221 23.481 397.711 24.3159C396.206 25.1452 395.226 27.1362 395.226 29.5209C395.226 33.9189 397.225 35.7283 400.651 35.7283C402.69 35.7283 404.608 34.6728 405.437 32.8634H405.518C405.541 33.6564 405.622 34.4885 405.851 35.1978H411.723C411.014 34.2958 411.014 32.33 411.014 30.7914V20.3172C411.014 16.0281 408.788 14.2969 403.776 14.2969C401.254 14.2969 399.517 14.632 398.096 15.6065C396.661 16.5894 395.837 18.2872 395.795 21.0684H401.21ZM401.101 28.9121C401.101 27.7757 401.402 27.1334 402.042 26.6559C402.606 26.2035 403.435 26.1617 405.354 25.1424C405.354 25.969 405.326 27.0329 405.326 28.7223C405.326 30.7495 404.15 31.5118 402.874 31.5118C401.74 31.5091 401.101 30.5317 401.101 28.9121Z" fill="#ECECE8"/>
<path d="M423.887 35.1976H429.765V8.30151H423.661V17.0416H423.585C422.574 14.8524 420.723 14.2939 419.031 14.2939C414.019 14.2939 413.125 18.8483 413.125 25.1814C413.125 32.7878 415.303 35.7254 419.411 35.7254C422.116 35.7254 423.367 34.1086 423.814 32.7068H423.89V35.1976H423.887ZM423.778 25.1423C423.778 29.0935 423.395 31.2799 421.594 31.2799C419.293 31.2799 419.212 28.1581 419.212 24.8798C419.212 21.1827 419.33 18.7366 421.552 18.7366C423.627 18.7366 423.778 21.5206 423.778 25.1423Z" fill="#ECECE8"/>
<path d="M448.632 35.1977H442.76V32.7879H442.684C441.819 34.5974 440.048 35.7255 437.795 35.7255C434.321 35.7255 432.476 33.9942 432.476 30.0709V14.8218H438.58V28.7222C438.58 30.191 439.225 31.0482 440.35 31.0482C441.512 31.0482 442.534 30.1519 442.534 28.1581V14.8218H448.632V35.1977Z" fill="#ECECE8"/>
<path d="M451.498 8.30151H457.602V35.1976H451.498V8.30151Z" fill="#ECECE8"/>
<path d="M461.935 19.0383H459.408V14.8218H461.935V8.83496H468.039V14.8246H470.863V19.0411H468.039V29.3282C468.039 30.7523 468.562 31.2046 469.997 31.2046C470.259 31.2046 470.603 31.1711 470.863 31.1348V35.1977C469.695 35.3485 468.523 35.4239 467.358 35.4239C463.142 35.4239 461.933 34.67 461.933 29.923V19.0383H461.935Z" fill="#ECECE8"/>
<path d="M483.543 28.7223C483.59 29.6298 483.66 30.42 483.962 31.0232C484.305 31.59 484.863 31.9642 485.849 31.9642C487.276 31.9642 488.033 31.0483 488.033 29.8895C488.033 28.9457 487.58 28.0465 485.698 27.4043C480.686 25.7149 478.276 24.732 478.276 20.4373C478.276 16.3688 481.138 14.2969 486.042 14.2969C491.763 14.2969 493.425 17.0781 493.425 20.0184V20.7054H487.994V20.3172C487.994 18.5552 487.279 18.0694 485.994 18.0694C484.375 18.0694 483.922 18.8512 483.922 19.943C483.922 23.5592 493.682 21.1577 493.682 29.0657C493.682 33.1677 490.929 35.7283 485.891 35.7283C480.424 35.7283 478.125 33.6955 478.125 29.6298V28.7223H483.543Z" fill="#ECECE8"/>
<path d="M494.391 14.8218H500.49L502.458 29.8475H502.528L504.823 14.8218H511.38L513.53 29.8475H513.6L515.756 14.8218H521.628L517.227 35.1977H510.333L508.113 20.1664H508.037L505.656 35.1977H498.655L494.391 14.8218Z" fill="#ECECE8"/>
<path d="M523.435 8H529.544V12.6716H523.435V8ZM523.435 14.8218H529.544V35.1977H523.435V14.8218Z" fill="#ECECE8"/>
<path d="M532.328 14.8218H538.2V17.2289H538.281C539.142 15.4166 540.92 14.2969 543.174 14.2969C544.944 14.2969 547.287 14.632 548.186 17.4187C549.627 15.0508 550.976 14.2969 553.24 14.2969C556.703 14.2969 558.543 16.0281 558.543 19.9431V35.1978H552.439V21.2974C552.439 19.8314 551.805 18.9629 550.671 18.9629C549.504 18.9629 548.482 19.8732 548.482 21.867V35.1978H542.383V21.2974C542.383 19.8314 541.747 18.9629 540.613 18.9629C539.451 18.9629 538.429 19.8732 538.429 21.867V35.1978H532.331V14.8218H532.328Z" fill="#ECECE8"/>
<path d="M385 8.25122H394.53V12.4677H390.646V37.8504H394.53V42.0668H385V8.25122Z" fill="#ECECE8"/>
<path d="M559.931 37.8532H563.81V12.4677H559.931V8.25122H569.45V42.0668H559.931V37.8532Z" fill="#ECECE8"/>
<path d="M55.6323 107.52C55.6323 113.677 50.8158 118.214 44.905 118.214C38.9942 118.214 34.1777 113.677 34.1777 107.52C34.1777 101.32 38.9942 96.8267 44.905 96.8267C50.8158 96.8267 55.6323 101.32 55.6323 107.52ZM50.9364 107.52C50.9364 103.673 48.1449 101.04 44.905 101.04C41.6651 101.04 38.8736 103.673 38.8736 107.52C38.8736 111.329 41.6651 114 44.905 114C48.1449 114 50.9364 111.324 50.9364 107.52Z" fill="#ECECE8"/>
<path d="M78.7744 107.52C78.7744 113.677 73.9579 118.214 68.0471 118.214C62.1362 118.214 57.3198 113.677 57.3198 107.52C57.3198 101.325 62.1362 96.8267 68.0471 96.8267C73.9579 96.8267 78.7744 101.32 78.7744 107.52ZM74.0785 107.52C74.0785 103.673 71.287 101.04 68.0471 101.04C64.8072 101.04 62.0157 103.673 62.0157 107.52C62.0157 111.329 64.8072 114 68.0471 114C71.287 114 74.0785 111.324 74.0785 107.52Z" fill="#ECECE8"/>
<path d="M100.952 97.4727V116.671C100.952 124.568 96.2948 127.794 90.7889 127.794C85.6061 127.794 82.4867 124.327 81.3103 121.492L85.3987 119.79C86.1268 121.531 87.9106 123.585 90.7841 123.585C94.3084 123.585 96.4924 121.41 96.4924 117.317V115.779H96.3285C95.2775 117.076 93.2525 118.209 90.6973 118.209C85.3505 118.209 80.4521 113.552 80.4521 107.559C80.4521 101.523 85.3505 96.8267 90.6973 96.8267C93.2477 96.8267 95.2727 97.9597 96.3285 99.218H96.4924V97.4775H100.952V97.4727ZM96.8251 107.559C96.8251 103.793 94.3132 101.04 91.1167 101.04C87.8769 101.04 85.1625 103.793 85.1625 107.559C85.1625 111.286 87.8769 114 91.1167 114C94.3132 114 96.8251 111.286 96.8251 107.559Z" fill="#ECECE8"/>
<path d="M108.304 86.2197V117.558H103.724V86.2197H108.304Z" fill="#ECECE8"/>
<path d="M126.153 111.04L129.798 113.47C128.621 115.21 125.786 118.209 120.888 118.209C114.813 118.209 110.276 113.513 110.276 107.515C110.276 101.156 114.852 96.8218 120.362 96.8218C125.912 96.8218 128.626 101.238 129.513 103.625L130 104.84L115.705 110.76C116.8 112.905 118.501 114 120.888 114C123.279 114 124.938 112.823 126.153 111.04ZM114.934 107.192L124.489 103.224C123.964 101.889 122.383 100.958 120.522 100.958C118.135 100.958 114.813 103.065 114.934 107.192Z" fill="#ECECE8"/>
<path d="M16.8406 104.738V100.201H32.1288C32.2782 100.992 32.3554 101.927 32.3554 102.94C32.3554 106.344 31.4249 110.553 28.426 113.551C25.5092 116.589 21.7824 118.209 16.8454 118.209C7.6947 118.209 0 110.755 0 101.604C0 92.4536 7.6947 85 16.8454 85C21.9077 85 25.514 86.9864 28.2236 89.5754L25.0223 92.7767C23.0793 90.9542 20.4469 89.5368 16.8406 89.5368C10.1584 89.5368 4.93213 94.9221 4.93213 101.604C4.93213 108.287 10.1584 113.672 16.8406 113.672C21.1749 113.672 23.6434 111.931 25.2247 110.35C26.5072 109.068 27.3509 107.236 27.6836 104.733L16.8406 104.738Z" fill="#ECECE8"/>
<path d="M199.5 119.936C197.695 120.248 195.858 120.343 193.958 120.593L188.162 103.843V121.312C186.357 121.499 184.71 121.749 183 122V90H187.814L194.401 108.156V90H199.5V119.936ZM209.476 101.719C211.44 101.719 214.448 101.625 216.253 101.625V106.625C214.004 106.625 211.376 106.625 209.476 106.719V114.156C212.453 113.968 215.43 113.718 218.439 113.624V118.436L204.409 119.53V90H218.439V94.9997H209.476V101.719ZM237.284 94.9997H232.027V117.999C230.317 117.999 228.606 117.999 226.959 118.062V94.9997H221.702V90H237.284V94.9997ZM245.517 101.374H252.454V106.374H245.517V117.717H240.545V90H254.702V94.9997H245.517V101.374ZM262.936 113.343C265.818 113.405 268.732 113.624 271.55 113.78V118.717C267.021 118.436 262.493 118.155 257.869 118.061V90H262.936V113.343ZM275.827 119.062C277.441 119.156 279.152 119.249 280.799 119.437V90H275.827V119.062ZM303 90L296.571 105.219L303 121.999C301.099 121.749 299.2 121.405 297.299 121.092L293.657 111.843L289.951 120.343C288.114 120.031 286.341 119.936 284.504 119.686L291.028 105.03L285.138 90H290.585L293.911 98.4061L297.458 90H303Z" fill="#ECECE8"/>
<path d="M455.389 103.44C453.445 103.883 448.31 104.13 448.31 104.13L447.679 106.132C447.679 106.132 450.221 105.919 452.082 106.099C452.082 106.099 452.681 106.05 452.747 106.756C452.78 107.478 452.697 108.233 452.697 108.233C452.697 108.233 452.647 108.676 452.032 108.791C451.318 108.906 446.499 109.119 446.499 109.119L445.718 111.712C445.718 111.712 445.436 112.303 446.084 112.139C446.682 111.975 451.733 111.023 452.398 111.154C453.096 111.318 453.894 112.27 453.661 113.124C453.395 114.158 448.344 117.342 445.286 117.129C445.286 117.129 443.674 117.227 442.328 115.077C441.032 113.025 442.777 109.168 442.777 109.168C442.777 109.168 441.996 107.363 442.578 106.706C442.578 106.706 442.91 106.427 443.907 106.345L445.153 103.818C445.153 103.818 443.741 103.9 442.91 102.882C442.146 101.898 442.079 101.471 442.677 101.208C443.309 100.88 449.158 99.8459 453.179 99.9772C453.179 99.9772 454.591 99.8131 455.838 102.226C455.838 102.226 456.403 103.211 455.406 103.44H455.389ZM440.235 113.157C439.736 114.355 438.357 115.619 436.695 114.847C435 114.059 432.325 108.676 432.325 108.676C432.325 108.676 431.328 106.674 431.129 106.739C431.129 106.739 430.913 106.345 430.796 108.545C430.63 110.728 430.83 114.978 429.916 115.651C429.085 116.308 428.088 116.029 427.523 115.258C427.058 114.486 426.858 112.631 427.124 109.398C427.423 106.165 428.171 102.718 429.118 101.651C430.115 100.568 430.913 101.356 431.212 101.651C431.212 101.651 432.491 102.8 434.652 106.198L435.017 106.821C435.017 106.821 436.978 110.055 437.177 110.038C437.177 110.038 437.343 110.202 437.476 110.071C437.676 110.022 437.609 108.971 437.609 108.971C437.609 108.971 437.244 105.476 435.416 99.5669C435.416 99.5669 435.15 98.8119 435.333 98.0898C435.499 97.4333 436.213 97.7615 436.213 97.7615C436.213 97.7615 438.972 99.0745 440.318 103.506C441.647 107.937 440.75 111.959 440.251 113.157H440.235ZM426.71 101.783C426.445 102.242 426.328 102.882 425.182 103.063C425.182 103.063 414.05 103.834 413.502 104.606C413.502 104.606 413.136 105.065 413.735 105.18C414.366 105.311 416.892 105.64 418.088 105.705C419.384 105.705 423.738 105.738 425.333 107.675C425.333 107.675 426.247 108.594 426.214 110.678C426.18 112.812 425.798 113.567 424.951 114.338C424.07 115.061 416.526 118.409 411.659 113.288C411.659 113.288 409.433 110.826 412.44 108.955C412.44 108.955 414.6 107.642 420.134 109.168C420.134 109.168 421.795 109.759 421.729 110.367C421.629 111.023 420.35 111.68 418.489 111.647C416.694 111.597 415.365 110.744 415.631 110.892C415.88 110.974 413.686 109.841 413.005 110.613C412.34 111.335 412.507 111.762 413.171 112.205C414.833 113.157 421.363 112.812 423.307 110.662C423.307 110.662 424.088 109.792 422.909 109.086C421.745 108.43 418.356 108.019 417.043 107.97C415.797 107.905 411.127 107.97 410.43 106.772C410.43 106.772 409.765 105.919 410.496 103.588C411.26 101.126 416.694 100.174 419.054 99.9772C419.054 99.9772 425.534 99.7146 426.747 101.028C426.747 101.028 426.913 101.323 426.714 101.766L426.71 101.783ZM408.334 116.208C407.553 116.782 405.892 116.536 405.41 115.88C404.944 115.305 404.778 113.04 404.861 109.479C404.978 105.835 405.028 101.371 405.858 100.649C406.689 99.9428 407.188 100.566 407.52 101.042C407.852 101.535 408.284 102.076 408.351 103.209C408.451 104.358 408.733 110.266 408.733 110.266C408.733 110.266 409.099 115.65 408.351 116.208H408.334ZM409.996 97.0065C407.703 97.7779 406.141 97.5317 404.812 96.9573C404.23 97.9913 403.881 98.3031 403.449 98.3688C402.784 98.4344 402.203 97.384 402.12 97.0558C401.987 96.8096 401.671 96.3664 402.053 95.3653C400.757 94.2164 400.657 92.6736 400.89 91.6396C401.189 90.425 403.382 85.8623 410.029 85.3207C410.029 85.3207 413.286 85.0909 413.851 86.7978H413.951C413.951 86.7978 417.108 86.7978 417.041 89.588C417.041 92.3781 413.552 95.8576 409.996 97.0558V97.0065ZM412.954 89.0644C410.86 89.3927 407.636 92.15 406.091 94.4314C408.467 94.8581 412.621 94.694 414.482 90.9847C414.482 90.9847 415.361 88.6541 412.954 89.0644ZM403.765 90.8698C403.1 91.9366 403.067 92.5767 403.382 93.0035C404.163 91.8546 405.543 90.0492 407.62 88.6377C406.025 88.8018 404.679 89.4583 403.765 90.8698ZM460.372 116.093C458.844 119.802 457.547 123.561 456.8 129.189C456.8 129.189 456.634 130.288 455.72 129.927C454.806 129.599 453.31 128.122 452.978 126.037C452.646 123.313 453.875 118.717 456.384 113.434C455.653 112.285 455.138 110.578 455.554 108.182C455.554 108.182 456.218 103.751 460.705 99.7458C460.705 99.7458 461.236 99.3027 461.535 99.4504C461.901 99.6145 461.751 101.026 461.452 101.748C461.187 102.438 459.193 105.851 459.193 105.851C459.193 105.851 457.946 108.182 458.295 110.004C460.655 106.426 466.022 99.173 469.344 101.469C471.454 102.946 471.454 107.706 469.875 110.463C468.629 112.646 465.106 117.16 460.404 116.109L460.372 116.093ZM467.318 104.95C466.088 106.263 463.895 108.758 462.167 112.139C463.995 111.942 465.773 110.941 466.321 110.432C467.202 109.661 469.229 107.576 468.913 104.819C468.913 104.819 468.714 103.375 467.318 104.95ZM392.882 118.03C387 119.802 381.452 118.982 378.428 118.194C378.345 119.408 378.212 119.917 378.012 120.114C377.78 120.377 375.852 121.46 374.789 119.917C374.323 119.179 374.091 117.849 373.958 116.635C367.145 113.582 363.988 109.085 363.888 108.921C363.722 108.756 362.177 107.164 363.722 105.195C365.168 103.422 369.953 101.633 374.24 100.928C374.407 97.3167 374.805 94.5266 375.32 93.2956C375.935 91.8185 376.716 93.1315 377.414 94.1163C377.979 94.8548 378.328 98.0225 378.361 100.55C381.153 100.419 382.848 100.616 385.955 101.207C390.043 101.896 392.768 103.964 392.552 106.295C392.352 108.592 390.225 109.544 389.395 109.61C388.564 109.676 387.235 109.068 387.235 109.068C386.304 108.642 387.151 108.248 388.231 107.788C389.428 107.214 389.162 106.639 389.162 106.639C388.73 105.326 383.429 104.456 378.164 104.456C378.164 107.329 378.28 112.088 378.363 114.862C382.052 115.551 384.81 115.404 384.81 115.404C384.81 115.404 398.268 115.026 398.65 106.541C399.065 98.0389 385.192 89.8998 374.973 87.3394C364.771 84.697 358.99 86.568 358.491 86.8142C357.943 87.0768 358.441 87.1753 358.441 87.1753C358.441 87.1753 358.99 87.2574 359.987 87.5856C360.984 87.9139 360.186 88.4063 360.186 88.4063C358.441 88.9971 356.497 88.6525 356.115 87.8646C355.733 87.0932 356.364 86.3875 357.112 85.3535C357.81 84.2867 358.607 84.3195 358.607 84.3195C371.234 79.9701 386.655 87.7662 386.655 87.7662C401.076 94.9549 403.535 103.406 403.269 106.688C403.037 109.922 401.774 115.387 392.884 118.044L392.882 118.03ZM365.134 106.296C363.705 106.953 364.702 108.003 364.702 108.003C367.394 110.842 370.684 112.631 373.842 113.748C374.207 108.824 374.174 107.068 374.174 104.589C369.289 104.917 366.464 105.705 365.134 106.296Z" fill="#ECECE8"/>
<path d="M543.994 122.675C534.787 122.675 527.316 115.215 527.316 106.007C527.316 96.7823 534.787 89.3279 543.994 89.3279C553.209 89.3279 560.671 96.7823 560.671 106.007C560.671 115.215 553.209 122.675 543.994 122.675ZM543.994 81C530.192 81 519 92.1944 519 106.007C519 119.808 530.192 131 543.994 131C557.802 131 569.012 119.808 569.012 106.007C569.012 92.1944 557.802 81 543.994 81Z" fill="#ECECE8"/>
<path d="M543.994 97.4375C539.263 97.4375 535.43 101.262 535.43 106.007C535.43 110.737 539.263 114.572 543.994 114.572C548.729 114.572 552.572 110.736 552.572 106.007C552.572 101.262 548.729 97.4375 543.994 97.4375Z" fill="#ECECE8"/>
</svg>
