<svg width="120" height="32" viewBox="0 0 120 32" fill="none" xmlns="http://www.w3.org/2000/svg">
<path d="M16.5 29.936C14.6953 30.2482 12.8578 30.3431 10.9582 30.5928L5.16211 13.843V31.312C3.35742 31.4993 1.70977 31.7491 0 32V0H4.81406L11.4012 18.1559V0H16.5V29.936ZM26.4762 11.7189C28.4402 11.7189 31.4484 11.6252 33.2531 11.6252V16.625C31.0043 16.625 28.3758 16.625 26.4762 16.7186V24.1558C29.4527 23.9685 32.4305 23.7176 35.4387 23.6239V28.4363L21.409 29.5302V0H35.4387V4.99975H26.4762V11.7189ZM54.2836 4.99975H49.0266V27.9993C47.3168 27.9993 45.6059 27.9993 43.9594 28.0617V4.99975H38.7023V0H54.2836V4.99975ZM62.5172 11.3743H69.4535V16.3741H62.5172V27.7171H57.5449V0H71.7023V4.99975H62.5172V11.3743ZM79.9359 23.3429C82.8176 23.4054 85.732 23.6239 88.5504 23.78V28.7173C84.0211 28.4364 79.493 28.1554 74.8688 28.0606V0H79.9359V23.3429ZM92.8266 29.0619C94.4414 29.1556 96.1523 29.2492 97.7988 29.4365V0H92.8266V29.0619ZM120 0L113.571 15.2189L120 31.9988C118.099 31.7491 116.2 31.4045 114.299 31.0923L110.657 21.8433L106.951 30.3431C105.114 30.0309 103.341 29.936 101.504 29.6863L108.028 15.0305L102.138 0H107.585L110.911 8.40614L114.458 0H120Z" fill="#ECECE8"/>
</svg>
