<svg width="96" height="34" viewBox="0 0 96 34" fill="none" xmlns="http://www.w3.org/2000/svg">
<path d="M96 0L25.7677 30.2614C19.9436 32.7538 15.0534 34 11.0969 34C6.60969 34 3.36035 32.4133 1.34885 29.2398C0.0800538 27.2045 -0.293622 24.6166 0.227821 21.476C0.749264 18.3354 2.12869 14.9921 4.3661 11.4461C6.23834 8.57319 9.30278 4.79541 13.5594 0.112722C12.1147 2.41442 11.0552 4.94158 10.4238 7.59235C9.30356 12.4285 10.3093 15.98 13.4411 18.247C14.9342 19.3053 16.9875 19.8345 19.6009 19.8345C21.9856 19.7934 24.3558 19.451 26.6566 18.8153L96 0Z" fill="#ECECE8"/>
</svg>
