<svg width="29" height="51" viewBox="0 0 29 51" fill="none" xmlns="http://www.w3.org/2000/svg">
<path d="M14.6321 3.996C13.3721 3.684 12.4481 3.528 12.4481 2.388C12.4481 1.68 13.0961 1.212 14.3081 1.212C15.6641 1.212 16.3121 1.812 16.4681 2.964H17.5481C17.4041 1.188 16.1321 0.252 14.3081 0.252C12.4121 0.252 11.3681 1.152 11.3681 2.508C11.3681 4.176 12.9041 4.62 14.1881 4.92C16.1081 5.364 16.7441 5.58 16.7441 6.756C16.7441 7.524 16.2161 8.208 14.7281 8.208C12.9281 8.208 12.2081 7.296 12.0881 6.12H11.0081C11.1281 8.088 12.7001 9.168 14.7281 9.168C16.9001 9.168 17.8241 8.004 17.8241 6.756C17.8241 4.8 16.5641 4.476 14.6321 3.996ZM7.41063 17.252H8.49063C8.28663 15.62 6.94263 14.252 4.84263 14.252C2.49063 14.252 0.870625 16.124 0.870625 18.704C0.870625 21.296 2.49063 23.168 4.84263 23.168C6.95463 23.168 8.29863 21.8 8.49063 19.904H7.41063C7.33863 20.984 6.64263 22.208 4.84263 22.208C2.80263 22.208 1.95063 20.444 1.95063 18.704C1.95063 16.976 2.80263 15.212 4.84263 15.212C6.63063 15.212 7.25463 16.436 7.41063 17.252ZM10.2156 19.472V20.432H19.8156V19.472H10.2156ZM21.8196 23H22.8996V19.532H25.3596C27.5316 19.532 26.7156 22.64 27.0876 23H28.2516V22.928C27.8076 22.784 28.5036 19.412 26.5956 19.04V19.016C27.5436 18.776 28.1316 18.092 28.1316 16.856C28.1316 15.332 26.9916 14.42 25.2996 14.42H21.8196V23ZM22.8996 15.38H25.0476C25.9356 15.38 27.0516 15.488 27.0516 16.976C27.0516 18.464 25.9356 18.572 25.0476 18.572H22.8996V15.38ZM9.97492 37.168C12.4949 37.168 14.1749 35.284 14.1749 32.704C14.1749 30.124 12.4949 28.252 9.97492 28.252C7.45492 28.252 5.77492 30.124 5.77492 32.704C5.77492 35.284 7.45492 37.168 9.97492 37.168ZM9.97492 36.208C7.81492 36.208 6.85492 34.552 6.85492 32.704C6.85492 30.856 7.81492 29.212 9.97492 29.212C12.1349 29.212 13.0949 30.856 13.0949 32.704C13.0949 34.552 12.1349 36.208 9.97492 36.208ZM17.8645 28.42V37H23.4445V36.04H18.9445V28.42H17.8645ZM11.9817 42.42V51H17.5617V50.04H13.0617V42.42H11.9817Z" fill="#ECECE8"/>
</svg>
