<svg width="51" height="50" viewBox="0 0 51 50" fill="none" xmlns="http://www.w3.org/2000/svg">
<path d="M24.9942 41.6746C15.7874 41.6746 8.31632 34.2152 8.31632 25.0071C8.31632 15.7823 15.7874 8.32795 24.9942 8.32795C34.2087 8.32795 41.6708 15.7823 41.6708 25.0071C41.6708 34.2152 34.2087 41.6746 24.9942 41.6746ZM24.9942 0C11.1918 0 0 11.1944 0 25.0071C0 38.8082 11.1918 50 24.9942 50C38.8017 50 50.0116 38.8082 50.0116 25.0071C50.0116 11.1944 38.8017 0 24.9942 0Z" fill="#ECECE8"/>
<path d="M24.9941 16.4375C20.2628 16.4375 16.4297 20.2616 16.4297 25.0071C16.4297 29.7371 20.2628 33.5716 24.9941 33.5716C29.7293 33.5716 33.5715 29.7359 33.5715 25.0071C33.5715 20.2616 29.7293 16.4375 24.9941 16.4375Z" fill="#ECECE8"/>
</svg>
