<svg width="1519" height="925" viewBox="0 0 1519 925" fill="none" xmlns="http://www.w3.org/2000/svg">
<path d="M395.731 100.912V0.399986H320.851V100.912C320.851 122.224 313.075 141.52 269.011 141.52C224.947 141.52 217.171 122.512 217.171 100.912V0.399986H142.291V100.912C142.291 171.184 180.307 204.88 269.011 204.88C357.427 204.88 395.731 170.896 395.731 100.912ZM592.125 0.399986V119.344L505.149 0.399986H407.229V202H482.109V83.056L569.085 202H667.005V0.399986H592.125ZM828.395 0.399986H678.635V202H828.395C877.067 202 922.859 169.744 922.859 101.2C922.859 32.656 877.067 0.399986 828.395 0.399986ZM805.355 138.64H753.515V63.76H805.355C821.483 63.76 847.979 63.76 847.979 101.2C847.979 138.64 821.483 138.64 805.355 138.64ZM1144.6 58V0.399986H931.479V202H1144.6V144.4H1006.36V125.68H1144.6V76.72H1006.36V58H1144.6ZM1388.69 77.584C1388.69 32.656 1357.3 0.399986 1311.5 0.399986H1153.1V202H1227.98V154.768H1272.05L1299.98 202H1388.69L1352.98 144.112C1375.15 131.152 1388.69 106.96 1388.69 77.584ZM1227.98 63.76H1297.1C1304.59 63.76 1313.81 63.76 1313.81 77.584C1313.81 91.408 1304.59 91.408 1297.1 91.408H1227.98V63.76ZM245.583 340.912C245.583 411.184 283.599 444.88 372.303 444.88C453.231 444.88 494.991 416.368 498.159 352.432H421.551C418.671 371.728 403.983 381.52 372.303 381.52C328.239 381.52 320.463 362.512 320.463 340.912C320.463 319.6 327.951 300.88 372.303 300.88C403.983 300.88 418.671 310.384 421.551 329.392H498.159C494.991 265.744 452.943 237.52 372.303 237.52C283.599 237.52 245.583 270.928 245.583 340.912ZM630.772 444.88C719.188 444.88 757.492 410.896 757.492 340.912C757.492 271.216 719.188 237.52 630.772 237.52C542.068 237.52 504.052 270.928 504.052 340.912C504.052 411.184 542.068 444.88 630.772 444.88ZM630.772 381.52C586.708 381.52 578.932 362.512 578.932 340.912C578.932 319.6 586.42 300.88 630.772 300.88C675.124 300.88 682.612 319.888 682.612 340.912C682.612 362.224 674.836 381.52 630.772 381.52ZM951.14 240.4V359.344L864.164 240.4H766.244V442H841.124V323.056L928.1 442H1026.02V240.4H951.14ZM1043.41 315.28V372.88H1273.81V315.28H1043.41ZM0.895625 610.864C0.895625 670.768 46.9756 684.88 129.632 684.88C212.288 684.88 258.368 670.768 258.368 615.184C258.368 562.48 209.12 557.008 129.632 553.84C85.8556 552.112 78.6556 552.4 78.6556 544.624C78.6556 536.848 85.8556 535.12 120.992 535.12C157.568 535.12 174.848 537.424 174.848 548.08H249.728C249.728 496.528 205.376 477.52 126.752 477.52C47.2636 477.52 3.77563 496.528 3.77563 540.88C3.77563 587.824 38.6236 602.8 129.632 605.68C176.864 607.12 183.488 608.272 183.488 616.912C183.488 624.4 176.864 627.28 132.512 627.28C84.9916 627.28 75.7756 620.656 75.7756 610.864H0.895625ZM506.201 480.4H258.521V543.76H344.921V682H419.801V543.76H506.201V480.4ZM750.391 557.584C750.391 512.656 718.999 480.4 673.207 480.4H514.807V682H589.687V634.768H633.751L661.687 682H750.391L714.679 624.112C736.855 611.152 750.391 586.96 750.391 557.584ZM589.687 543.76H658.807C666.295 543.76 675.511 543.76 675.511 557.584C675.511 571.408 666.295 571.408 658.807 571.408H589.687V543.76ZM1012.37 580.912V480.4H937.492V580.912C937.492 602.224 929.716 621.52 885.652 621.52C841.588 621.52 833.812 602.512 833.812 580.912V480.4H758.932V580.912C758.932 651.184 796.948 684.88 885.652 684.88C974.068 684.88 1012.37 650.896 1012.37 580.912ZM1020.99 580.912C1020.99 651.184 1059.01 684.88 1147.71 684.88C1228.64 684.88 1270.4 656.368 1273.57 592.432H1196.96C1194.08 611.728 1179.39 621.52 1147.71 621.52C1103.65 621.52 1095.87 602.512 1095.87 580.912C1095.87 559.6 1103.36 540.88 1147.71 540.88C1179.39 540.88 1194.08 550.384 1196.96 569.392H1273.57C1270.4 505.744 1228.35 477.52 1147.71 477.52C1059.01 477.52 1020.99 510.928 1020.99 580.912ZM1288.1 555.28V612.88H1518.5V555.28H1288.1ZM580.732 720.4H333.052V783.76H419.452V922H494.332V783.76H580.732V720.4ZM664.218 720.4H589.338V922H664.218V720.4ZM796.709 924.88C885.125 924.88 923.429 890.896 923.429 820.912C923.429 751.216 885.125 717.52 796.709 717.52C708.005 717.52 669.989 750.928 669.989 820.912C669.989 891.184 708.005 924.88 796.709 924.88ZM796.709 861.52C752.645 861.52 744.869 842.512 744.869 820.912C744.869 799.6 752.357 780.88 796.709 780.88C841.061 780.88 848.549 799.888 848.549 820.912C848.549 842.224 840.773 861.52 796.709 861.52ZM1117.08 720.4V839.344L1030.1 720.4H932.182V922H1007.06V803.056L1094.04 922H1191.96V720.4H1117.08Z" fill="#ECECE8"/>
</svg>
