<svg width="45" height="50" viewBox="0 0 45 50" fill="none" xmlns="http://www.w3.org/2000/svg">
<path d="M11.7031 4.61603C13.5354 2.68921 15.7035 1.04233 18.1608 0C17.9123 0.753455 17.7295 1.52676 17.5516 2.29908C17.1492 4.27255 17.1691 6.33041 17.6331 8.29098C17.963 9.91602 18.5065 11.4875 19.0034 13.0668C19.5518 14.6601 20.1242 16.2464 20.778 17.801C21.4388 19.3466 22.1075 20.8982 22.96 22.3485C24.5071 19.4786 25.8664 16.5115 27.1711 13.5255C28.0226 11.4894 28.8931 9.43059 29.2428 7.23773C29.4177 6.44655 29.4723 5.63652 29.5677 4.83442C29.5697 4.07104 29.5807 3.30666 29.5618 2.54427C29.4872 1.94469 29.4316 1.34311 29.3124 0.750476C30.7243 1.5486 31.9505 2.62369 33.1538 3.69878C33.6069 4.17229 34.1305 4.57235 34.5558 5.07266C35.5067 6.05444 36.4497 7.07394 37.1204 8.27311C36.1814 8.50441 35.2504 8.87468 34.526 9.53284C33.2571 10.6804 32.4334 12.2161 31.7041 13.7399C30.9101 15.4304 30.1778 17.1488 29.4425 18.8652C29.1216 19.5719 28.8414 20.2956 28.5155 21.0004C27.6113 23.1586 26.6544 25.2928 25.6558 27.4083C28.278 29.5207 31.1049 31.4217 33.3744 33.9352C33.6079 34.1874 33.8086 34.4763 34.0918 34.6778C33.9874 34.1189 33.8066 33.5779 33.7182 33.015C33.2114 30.6355 32.9262 28.2094 32.8646 25.7773C32.8487 22.6682 33.1746 19.5154 34.213 16.5681C35.0089 14.2531 36.239 11.9669 38.2631 10.5027C39.5538 10.875 40.7253 11.5569 41.8392 12.2915C42.7484 12.9219 43.5949 13.6436 44.3769 14.4268C42.798 15.085 41.392 16.1898 40.4362 17.6124C39.5806 18.7728 39.0649 20.1358 38.6566 21.5077C38.3764 22.7833 38.1568 24.0758 38.1379 25.3842C38.1607 26.3501 38.0266 27.314 38.117 28.2799C38.1568 29.8414 38.4211 31.386 38.7152 32.9177C39.1365 34.8227 39.7158 36.7049 40.5872 38.456C41.1834 39.6621 41.9674 40.7997 43.0325 41.6385C43.5771 42.0128 44.1603 42.3354 44.7674 42.5975C43.4081 44.0548 41.9395 45.4028 40.4441 46.7172C39.1156 47.8746 37.7374 48.9745 36.3046 50C36.1198 46.9951 35.4093 44.0071 34.0908 41.2921C32.0717 37.1059 28.6178 33.7873 24.8281 31.1835C24.7218 31.3503 24.7446 31.5548 24.7307 31.7434C24.6691 34.8495 24.4614 37.9576 24.6462 41.0648C24.68 42.1706 24.6452 43.3162 25.0298 44.3724C25.5107 45.8932 26.6872 47.0577 27.8915 48.0434C26.9127 48.2558 25.9082 48.3204 24.9096 48.3601C23.9258 48.3551 22.9412 48.4544 21.9574 48.373C19.8758 48.3591 17.7802 48.2241 15.7472 47.7476C17.4205 46.6775 18.4827 44.8658 18.9646 42.9737C19.1902 42.0565 19.3511 41.1194 19.3571 40.1733C19.366 39.543 19.4505 38.9166 19.4356 38.2872C19.4455 37.359 19.529 36.4329 19.5161 35.5037C19.5022 33.6841 19.5538 31.8615 19.4525 30.0439C19.4326 29.5555 19.4525 29.0661 19.4197 28.5797C19.3253 28.1677 19.2657 27.7378 19.1037 27.3487C18.4032 26.8315 17.7086 26.3034 17.026 25.7604C14.5052 23.771 12.1691 21.5573 9.97117 19.2176C9.7794 19.028 9.59856 18.8245 9.37201 18.6736C9.34717 18.6319 9.29749 18.5465 9.27264 18.5048C9.97714 20.5984 10.4153 22.7853 10.4839 24.995C10.5058 26.5446 10.5266 28.1012 10.3299 29.6418C9.97217 33.4439 9.00039 37.1466 8.13592 40.8553C7.74939 42.5895 7.59836 44.3615 7.41454 46.1255C7.37082 47.3068 7.22475 48.4861 7.33803 49.6694C5.54451 48.502 3.76987 47.2909 2.18501 45.8486C1.37818 45.1666 0.639904 44.4022 0 43.5634C1.29173 41.3755 2.50397 39.1389 3.59698 36.8448C4.31736 35.2148 4.99105 33.558 5.49781 31.8466C5.90123 30.3893 6.20925 28.9023 6.3275 27.3924C6.35433 26.5913 6.35333 25.7902 6.32948 24.9881C6.14169 22.4438 5.28716 19.9551 3.87718 17.8288C3.05246 16.5184 2.02702 15.3441 0.912161 14.2739C2.30524 12.1883 4.0928 10.3548 6.16156 8.92928C6.54808 8.69103 6.9356 8.45477 7.33306 8.23539C8.93978 12.6688 11.718 16.6505 15.2315 19.7884C16.0582 20.4912 16.8998 21.1851 17.8299 21.7499C17.6063 20.929 17.3897 20.105 17.1135 19.3C16.9604 18.8026 16.7667 18.3182 16.6296 17.8159C15.9022 15.8414 15.0884 13.8848 13.9785 12.091C12.9004 10.3012 11.5044 8.62254 9.64228 7.61098C10.1321 6.4942 10.8893 5.5164 11.7031 4.61603Z" fill="#ECECE8"/>
</svg>
